<svg id="visual" viewBox="0 0 900 450" width="900" height="450" xmlns="http://www.w3.org/2000/svg" xmlns:xlink="http://www.w3.org/1999/xlink" version="1.1"><rect width="900" height="450" fill="#0d141d"></rect><g><g transform="translate(588 206)"><path d="M114 -140.3C143.7 -111 160.8 -71.2 173.4 -26.6C186.1 18 194.1 67.4 176.9 106.7C159.6 146 117 175.3 72.7 185C28.4 194.8 -17.7 185 -60.6 168.5C-103.4 152 -143.1 128.8 -168 93.3C-192.8 57.8 -202.9 10.1 -197.7 -37.5C-192.4 -85.2 -171.9 -132.8 -136.4 -161.1C-100.9 -189.4 -50.5 -198.5 -4.1 -193.5C42.2 -188.6 84.3 -169.7 114 -140.3Z" fill="none" stroke="#1E2734" stroke-width="20"></path></g></g></svg>