<svg id="visual" viewBox="0 0 960 540" width="960" height="540" xmlns="http://www.w3.org/2000/svg" xmlns:xlink="http://www.w3.org/1999/xlink" version="1.1"><rect x="0" y="0" width="960" height="540" fill="#1E2734"></rect><defs><linearGradient id="grad1_0" x1="43.8%" y1="100%" x2="100%" y2="0%"><stop offset="14.444444444444446%" stop-color="#0d141d" stop-opacity="1"></stop><stop offset="85.55555555555554%" stop-color="#0d141d" stop-opacity="1"></stop></linearGradient></defs><defs><linearGradient id="grad1_1" x1="43.8%" y1="100%" x2="100%" y2="0%"><stop offset="14.444444444444446%" stop-color="#0d141d" stop-opacity="1"></stop><stop offset="85.55555555555554%" stop-color="#161d28" stop-opacity="1"></stop></linearGradient></defs><defs><linearGradient id="grad1_2" x1="43.8%" y1="100%" x2="100%" y2="0%"><stop offset="14.444444444444446%" stop-color="#1e2734" stop-opacity="1"></stop><stop offset="85.55555555555554%" stop-color="#161d28" stop-opacity="1"></stop></linearGradient></defs><defs><linearGradient id="grad2_0" x1="0%" y1="100%" x2="56.3%" y2="0%"><stop offset="14.444444444444446%" stop-color="#0d141d" stop-opacity="1"></stop><stop offset="85.55555555555554%" stop-color="#0d141d" stop-opacity="1"></stop></linearGradient></defs><defs><linearGradient id="grad2_1" x1="0%" y1="100%" x2="56.3%" y2="0%"><stop offset="14.444444444444446%" stop-color="#161d28" stop-opacity="1"></stop><stop offset="85.55555555555554%" stop-color="#0d141d" stop-opacity="1"></stop></linearGradient></defs><defs><linearGradient id="grad2_2" x1="0%" y1="100%" x2="56.3%" y2="0%"><stop offset="14.444444444444446%" stop-color="#161d28" stop-opacity="1"></stop><stop offset="85.55555555555554%" stop-color="#1e2734" stop-opacity="1"></stop></linearGradient></defs><g transform="translate(960, 540)"><path d="M-324 0C-318.4 -61.6 -312.8 -123.2 -280.6 -162C-248.4 -200.8 -189.7 -216.7 -138.5 -239.9C-87.3 -263.1 -43.7 -293.5 0 -324L0 0Z" fill="#1a222e"></path><path d="M-216 0C-212.3 -41.1 -208.5 -82.2 -187.1 -108C-165.6 -133.8 -126.5 -144.5 -92.3 -159.9C-58.2 -175.4 -29.1 -195.7 0 -216L0 0Z" fill="#121923"></path><path d="M-108 0C-106.1 -20.5 -104.3 -41.1 -93.5 -54C-82.8 -66.9 -63.2 -72.2 -46.2 -80C-29.1 -87.7 -14.6 -97.8 0 -108L0 0Z" fill="#0d141d"></path></g><g transform="translate(0, 0)"><path d="M324 0C274.1 32.5 224.3 64.9 203.5 117.5C182.7 170.1 191.1 242.8 162 280.6C132.9 318.4 66.5 321.2 0 324L0 0Z" fill="#1a222e"></path><path d="M216 0C182.8 21.6 149.5 43.3 135.7 78.3C121.8 113.4 127.4 161.9 108 187.1C88.6 212.2 44.3 214.1 0 216L0 0Z" fill="#121923"></path><path d="M108 0C91.4 10.8 74.8 21.6 67.8 39.2C60.9 56.7 63.7 80.9 54 93.5C44.3 106.1 22.2 107.1 0 108L0 0Z" fill="#0d141d"></path></g></svg>