<svg id="visual" viewBox="0 0 900 450" width="900" height="450" xmlns="http://www.w3.org/2000/svg" xmlns:xlink="http://www.w3.org/1999/xlink" version="1.1"><rect x="0" y="0" width="900" height="450" fill="#1E2734"></rect><defs><linearGradient id="grad1_0" x1="50%" y1="0%" x2="100%" y2="100%"><stop offset="10%" stop-color="#0d141d" stop-opacity="1"></stop><stop offset="90%" stop-color="#0d141d" stop-opacity="1"></stop></linearGradient></defs><defs><linearGradient id="grad1_1" x1="50%" y1="0%" x2="100%" y2="100%"><stop offset="10%" stop-color="#0d141d" stop-opacity="1"></stop><stop offset="90%" stop-color="#131a24" stop-opacity="1"></stop></linearGradient></defs><defs><linearGradient id="grad1_2" x1="50%" y1="0%" x2="100%" y2="100%"><stop offset="10%" stop-color="#18212c" stop-opacity="1"></stop><stop offset="90%" stop-color="#131a24" stop-opacity="1"></stop></linearGradient></defs><defs><linearGradient id="grad1_3" x1="50%" y1="0%" x2="100%" y2="100%"><stop offset="10%" stop-color="#18212c" stop-opacity="1"></stop><stop offset="90%" stop-color="#1e2734" stop-opacity="1"></stop></linearGradient></defs><defs><linearGradient id="grad2_0" x1="0%" y1="0%" x2="50%" y2="100%"><stop offset="10%" stop-color="#0d141d" stop-opacity="1"></stop><stop offset="90%" stop-color="#0d141d" stop-opacity="1"></stop></linearGradient></defs><defs><linearGradient id="grad2_1" x1="0%" y1="0%" x2="50%" y2="100%"><stop offset="10%" stop-color="#131a24" stop-opacity="1"></stop><stop offset="90%" stop-color="#0d141d" stop-opacity="1"></stop></linearGradient></defs><defs><linearGradient id="grad2_2" x1="0%" y1="0%" x2="50%" y2="100%"><stop offset="10%" stop-color="#131a24" stop-opacity="1"></stop><stop offset="90%" stop-color="#18212c" stop-opacity="1"></stop></linearGradient></defs><defs><linearGradient id="grad2_3" x1="0%" y1="0%" x2="50%" y2="100%"><stop offset="10%" stop-color="#1e2734" stop-opacity="1"></stop><stop offset="90%" stop-color="#18212c" stop-opacity="1"></stop></linearGradient></defs><g transform="translate(900, 0)"><path d="M0 405C-46.3 379.4 -92.5 353.7 -138.1 333.5C-183.8 313.3 -228.7 298.6 -270.8 270.8C-313 243.1 -352.3 202.3 -374.2 155C-396.1 107.7 -400.5 53.8 -405 0L0 0Z" fill="#1b2430"></path><path d="M0 303.8C-34.7 284.5 -69.4 265.3 -103.6 250.1C-137.8 235 -171.5 223.9 -203.1 203.1C-234.7 182.3 -264.2 151.7 -280.6 116.2C-297 80.8 -300.4 40.4 -303.7 0L0 0Z" fill="#161d28"></path><path d="M0 202.5C-23.1 189.7 -46.3 176.9 -69.1 166.8C-91.9 156.7 -114.3 149.3 -135.4 135.4C-156.5 121.5 -176.1 101.1 -187.1 77.5C-198 53.8 -200.3 26.9 -202.5 0L0 0Z" fill="#101721"></path><path d="M0 101.3C-11.6 94.8 -23.1 88.4 -34.5 83.4C-45.9 78.3 -57.2 74.6 -67.7 67.7C-78.2 60.8 -88.1 50.6 -93.5 38.7C-99 26.9 -100.1 13.5 -101.2 0L0 0Z" fill="#0d141d"></path></g><g transform="translate(0, 450)"><path d="M0 -405C59.2 -406.1 118.5 -407.3 155 -374.2C191.5 -341.1 205.3 -273.7 230.5 -230.5C255.7 -187.3 292.4 -168.3 323.4 -133.9C354.3 -99.5 379.7 -49.8 405 0L0 0Z" fill="#1b2430"></path><path d="M0 -303.7C44.4 -304.6 88.9 -305.5 116.2 -280.6C143.6 -255.8 154 -205.3 172.9 -172.9C191.8 -140.5 219.3 -126.2 242.5 -100.5C265.8 -74.7 284.8 -37.3 303.8 0L0 0Z" fill="#161d28"></path><path d="M0 -202.5C29.6 -203.1 59.2 -203.6 77.5 -187.1C95.8 -170.5 102.6 -136.8 115.3 -115.3C127.9 -93.7 146.2 -84.2 161.7 -67C177.2 -49.8 189.8 -24.9 202.5 0L0 0Z" fill="#101721"></path><path d="M0 -101.2C14.8 -101.5 29.6 -101.8 38.7 -93.5C47.9 -85.3 51.3 -68.4 57.6 -57.6C63.9 -46.8 73.1 -42.1 80.8 -33.5C88.6 -24.9 94.9 -12.4 101.3 0L0 0Z" fill="#0d141d"></path></g></svg>