<svg id="visual" viewBox="0 0 450 900" width="450" height="900" xmlns="http://www.w3.org/2000/svg" xmlns:xlink="http://www.w3.org/1999/xlink" version="1.1"><rect x="0" y="0" width="450" height="900" fill="#1E2734"></rect><defs><linearGradient id="grad1_0" x1="0%" y1="100%" x2="100%" y2="0%"><stop offset="30%" stop-color="#0d141d" stop-opacity="1"></stop><stop offset="70%" stop-color="#0d141d" stop-opacity="1"></stop></linearGradient></defs><defs><linearGradient id="grad1_1" x1="0%" y1="100%" x2="100%" y2="0%"><stop offset="30%" stop-color="#0d141d" stop-opacity="1"></stop><stop offset="70%" stop-color="#161d28" stop-opacity="1"></stop></linearGradient></defs><defs><linearGradient id="grad1_2" x1="0%" y1="100%" x2="100%" y2="0%"><stop offset="30%" stop-color="#1e2734" stop-opacity="1"></stop><stop offset="70%" stop-color="#161d28" stop-opacity="1"></stop></linearGradient></defs><defs><linearGradient id="grad2_0" x1="0%" y1="100%" x2="100%" y2="0%"><stop offset="30%" stop-color="#0d141d" stop-opacity="1"></stop><stop offset="70%" stop-color="#0d141d" stop-opacity="1"></stop></linearGradient></defs><defs><linearGradient id="grad2_1" x1="0%" y1="100%" x2="100%" y2="0%"><stop offset="30%" stop-color="#161d28" stop-opacity="1"></stop><stop offset="70%" stop-color="#0d141d" stop-opacity="1"></stop></linearGradient></defs><defs><linearGradient id="grad2_2" x1="0%" y1="100%" x2="100%" y2="0%"><stop offset="30%" stop-color="#161d28" stop-opacity="1"></stop><stop offset="70%" stop-color="#1e2734" stop-opacity="1"></stop></linearGradient></defs><g transform="translate(450, 900)"><path d="M-247.5 0C-241.4 -43.9 -235.3 -87.8 -214.3 -123.8C-193.4 -159.7 -157.7 -187.7 -119.5 -207C-81.3 -226.3 -40.7 -236.9 0 -247.5L0 0Z" fill="#1a222e"></path><path d="M-165 0C-160.9 -29.3 -156.8 -58.5 -142.9 -82.5C-128.9 -106.5 -105.1 -125.1 -79.7 -138C-54.2 -150.9 -27.1 -157.9 0 -165L0 0Z" fill="#121923"></path><path d="M-82.5 0C-80.5 -14.6 -78.4 -29.3 -71.4 -41.3C-64.5 -53.2 -52.6 -62.6 -39.8 -69C-27.1 -75.4 -13.6 -79 0 -82.5L0 0Z" fill="#0d141d"></path></g><g transform="translate(0, 0)"><path d="M247.5 0C219.3 30.5 191.2 61 174.1 100.5C157 140 150.9 188.4 123.8 214.3C96.6 240.3 48.3 243.9 0 247.5L0 0Z" fill="#1a222e"></path><path d="M165 0C146.2 20.3 127.5 40.7 116 67C104.6 93.3 100.6 125.6 82.5 142.9C64.4 160.2 32.2 162.6 0 165L0 0Z" fill="#121923"></path><path d="M82.5 0C73.1 10.2 63.7 20.3 58 33.5C52.3 46.7 50.3 62.8 41.3 71.4C32.2 80.1 16.1 81.3 0 82.5L0 0Z" fill="#0d141d"></path></g></svg>