<svg id="visual" viewBox="0 0 900 600" width="900" height="600" xmlns="http://www.w3.org/2000/svg" xmlns:xlink="http://www.w3.org/1999/xlink" version="1.1"><rect x="0" y="0" width="900" height="600" fill="#1E2734"></rect><defs><linearGradient id="grad1_0" x1="33.3%" y1="100%" x2="100%" y2="0%"><stop offset="20%" stop-color="#0d141d" stop-opacity="1"></stop><stop offset="80%" stop-color="#0d141d" stop-opacity="1"></stop></linearGradient></defs><defs><linearGradient id="grad1_1" x1="33.3%" y1="100%" x2="100%" y2="0%"><stop offset="20%" stop-color="#0d141d" stop-opacity="1"></stop><stop offset="80%" stop-color="#131a24" stop-opacity="1"></stop></linearGradient></defs><defs><linearGradient id="grad1_2" x1="33.3%" y1="100%" x2="100%" y2="0%"><stop offset="20%" stop-color="#18212c" stop-opacity="1"></stop><stop offset="80%" stop-color="#131a24" stop-opacity="1"></stop></linearGradient></defs><defs><linearGradient id="grad1_3" x1="33.3%" y1="100%" x2="100%" y2="0%"><stop offset="20%" stop-color="#18212c" stop-opacity="1"></stop><stop offset="80%" stop-color="#1e2734" stop-opacity="1"></stop></linearGradient></defs><defs><linearGradient id="grad2_0" x1="0%" y1="100%" x2="66.7%" y2="0%"><stop offset="20%" stop-color="#0d141d" stop-opacity="1"></stop><stop offset="80%" stop-color="#0d141d" stop-opacity="1"></stop></linearGradient></defs><defs><linearGradient id="grad2_1" x1="0%" y1="100%" x2="66.7%" y2="0%"><stop offset="20%" stop-color="#131a24" stop-opacity="1"></stop><stop offset="80%" stop-color="#0d141d" stop-opacity="1"></stop></linearGradient></defs><defs><linearGradient id="grad2_2" x1="0%" y1="100%" x2="66.7%" y2="0%"><stop offset="20%" stop-color="#131a24" stop-opacity="1"></stop><stop offset="80%" stop-color="#18212c" stop-opacity="1"></stop></linearGradient></defs><defs><linearGradient id="grad2_3" x1="0%" y1="100%" x2="66.7%" y2="0%"><stop offset="20%" stop-color="#1e2734" stop-opacity="1"></stop><stop offset="80%" stop-color="#18212c" stop-opacity="1"></stop></linearGradient></defs><g transform="translate(900, 600)"><path d="M-297.5 0C-292.3 -56.6 -287.2 -113.2 -257.6 -148.7C-228 -184.3 -174 -198.7 -127 -220C-80 -241.2 -40 -269.4 0 -297.5L0 0Z" fill="#1b2430"></path><path d="M-223.1 0C-219.2 -42.5 -215.4 -84.9 -193.2 -111.5C-171 -138.2 -130.5 -149 -95.3 -165C-60 -180.9 -30 -202 0 -223.1L0 0Z" fill="#161d28"></path><path d="M-148.7 0C-146.2 -28.3 -143.6 -56.6 -128.8 -74.4C-114 -92.1 -87 -99.3 -63.5 -110C-40 -120.6 -20 -134.7 0 -148.7L0 0Z" fill="#101721"></path><path d="M-74.4 0C-73.1 -14.2 -71.8 -28.3 -64.4 -37.2C-57 -46.1 -43.5 -49.7 -31.8 -55C-20 -60.3 -10 -67.3 0 -74.4L0 0Z" fill="#0d141d"></path></g><g transform="translate(0, 0)"><path d="M297.5 0C290.7 53.8 284 107.7 257.6 148.7C231.2 189.8 185.2 218.1 139 240.8C92.8 263.4 46.4 280.4 0 297.5L0 0Z" fill="#1b2430"></path><path d="M223.1 0C218 40.4 213 80.7 193.2 111.5C173.4 142.3 138.9 163.6 104.3 180.6C69.6 197.6 34.8 210.3 0 223.1L0 0Z" fill="#161d28"></path><path d="M148.7 0C145.4 26.9 142 53.8 128.8 74.4C115.6 94.9 92.6 109 69.5 120.4C46.4 131.7 23.2 140.2 0 148.7L0 0Z" fill="#101721"></path><path d="M74.4 0C72.7 13.5 71 26.9 64.4 37.2C57.8 47.4 46.3 54.5 34.8 60.2C23.2 65.9 11.6 70.1 0 74.4L0 0Z" fill="#0d141d"></path></g></svg>