<svg id="visual" viewBox="0 0 900 450" width="900" height="450" xmlns="http://www.w3.org/2000/svg" xmlns:xlink="http://www.w3.org/1999/xlink" version="1.1"><rect x="0" y="0" width="900" height="450" fill="#0d141d"></rect><g transform="translate(-61.54922383401737 455.64328861511035)"><path d="M247.7 -319.1C313.1 -293.3 353 -210.5 387.7 -121.7C422.3 -32.9 451.9 61.8 398.8 100.1C345.8 138.4 210.1 120.4 129.8 150.3C49.6 180.3 24.8 258.1 -26.2 294.2C-77.2 330.3 -154.4 324.5 -189.6 279.9C-224.8 235.4 -218 152 -236.3 80.4C-254.6 8.8 -298 -51.1 -304 -119.2C-309.9 -187.2 -278.4 -263.5 -221.5 -292C-164.6 -320.5 -82.3 -301.3 4.4 -307.3C91.1 -313.4 182.2 -344.8 247.7 -319.1" fill="#1E2734"></path></g></svg>