<svg id="visual" viewBox="0 0 900 450" width="900" height="450" xmlns="http://www.w3.org/2000/svg" xmlns:xlink="http://www.w3.org/1999/xlink" version="1.1"><rect width="900" height="450" fill="#0d141d"></rect><g><g transform="translate(698 222)"><path d="M98.4 -122.3C123.6 -96.1 137.5 -61.4 145 -24.7C152.5 12 153.6 50.7 138.2 82C122.7 113.3 90.7 137.2 55.3 148.7C19.9 160.2 -18.9 159.3 -51.8 145.9C-84.7 132.4 -111.8 106.3 -127 75.5C-142.2 44.7 -145.5 9.2 -138.2 -23C-130.9 -55.2 -112.9 -84.1 -88.1 -110.5C-63.2 -136.8 -31.6 -160.5 2.5 -163.5C36.6 -166.4 73.2 -148.6 98.4 -122.3Z" fill="none" stroke="#1E2734" stroke-width="20"></path></g><g transform="translate(220 253)"><path d="M31 -38.1C40.4 -29 48.5 -19.5 51.1 -8.4C53.8 2.6 51 15.2 44.9 26.1C38.8 36.9 29.4 45.9 17.7 51.2C6.1 56.6 -7.9 58.2 -19.4 53.8C-31 49.4 -40.1 38.9 -45.9 27.3C-51.8 15.6 -54.3 2.8 -51.8 -8.7C-49.2 -20.2 -41.6 -30.4 -32.2 -39.5C-22.7 -48.5 -11.3 -56.5 -0.3 -56.1C10.8 -55.8 21.6 -47.2 31 -38.1Z" fill="none" stroke="#1E2734" stroke-width="20"></path></g></g></svg>